<svg width="14" height="12" viewBox="0 0 14 12" fill="none" xmlns="http://www.w3.org/2000/svg">
<path d="M6.79584 3.75937C6.86389 3.75234 6.93195 3.75 7 3.75C8.2882 3.75 9.33333 4.73672 9.33333 6C9.33333 7.24219 8.2882 8.25 7 8.25C5.68993 8.25 4.66667 7.24219 4.66667 6C4.66667 5.93437 4.6691 5.86875 4.67639 5.80313C4.90243 5.90859 5.16493 6 5.44445 6C6.30243 6 7 5.32734 7 4.5C7 4.23047 6.90521 3.97734 6.79584 3.75937ZM11.6813 2.63906C12.8188 3.65625 13.5795 4.85391 13.9392 5.71172C14.0194 5.89687 14.0194 6.10312 13.9392 6.28828C13.5795 7.125 12.8188 8.32266 11.6813 9.36094C10.5365 10.3875 8.96389 11.25 7 11.25C5.03611 11.25 3.46354 10.3875 2.31924 9.36094C1.18174 8.32266 0.42146 7.125 0.059818 6.28828C0.0203307 6.19694 0 6.09896 0 6C0 5.90104 0.0203307 5.80306 0.059818 5.71172C0.42146 4.85391 1.18174 3.65625 2.31924 2.63906C3.46354 1.61344 5.03611 0.75 7 0.75C8.96389 0.75 10.5365 1.61344 11.6813 2.63906ZM7 2.625C5.06771 2.625 3.5 4.13672 3.5 6C3.5 7.86328 5.06771 9.375 7 9.375C8.93229 9.375 10.5 7.86328 10.5 6C10.5 4.13672 8.93229 2.625 7 2.625Z" fill="#0177CD"/>
</svg>
