<?xml version="1.0" encoding="UTF-8"?>
<svg xmlns="http://www.w3.org/2000/svg" xmlns:xlink="http://www.w3.org/1999/xlink" width="497.14pt" height="157.96pt" viewBox="0 0 497.14 157.96" version="1.1">
<g id="surface1">
<path style=" stroke:none;fill-rule:nonzero;fill:rgb(100%,82.398987%,15.699768%);fill-opacity:1;" d="M 383.761719 58.53125 C 383.761719 57.378906 383.78125 56.542969 383.757813 55.710938 C 383.695313 53.742188 382.621094 52.671875 380.652344 52.65625 C 377.355469 52.636719 374.0625 52.640625 370.765625 52.65625 C 368.628906 52.664063 367.554688 53.730469 367.550781 55.859375 C 367.542969 71.273438 367.542969 86.683594 367.554688 102.09375 C 367.554688 104.230469 368.636719 105.292969 370.769531 105.304688 C 373.839844 105.320313 376.914063 105.3125 379.988281 105.308594 C 382.847656 105.308594 383.761719 104.40625 383.765625 101.574219 C 383.769531 92.753906 383.890625 83.933594 383.695313 75.117188 C 383.632813 72.339844 384.507813 70.425781 386.507813 68.648438 C 389.769531 65.753906 393.371094 64.132813 397.816406 64.566406 C 400.027344 64.78125 402.265625 64.820313 404.488281 64.800781 C 406.378906 64.789063 407.398438 63.773438 407.453125 61.894531 C 407.53125 59.449219 407.527344 56.996094 407.460938 54.546875 C 407.414063 52.773438 406.347656 51.6875 404.597656 51.664063 C 398.519531 51.59375 392.714844 52.652344 387.507813 56.019531 C 386.355469 56.761719 385.230469 57.546875 383.761719 58.53125 M 177.480469 78.878906 L 177.394531 78.878906 C 177.394531 86.496094 177.394531 94.113281 177.398438 101.730469 C 177.402344 104.421875 178.304688 105.304688 181.03125 105.308594 C 183.96875 105.3125 186.910156 105.3125 189.851563 105.308594 C 192.644531 105.304688 193.523438 104.429688 193.523438 101.636719 C 193.527344 92.417969 193.546875 83.199219 193.503906 73.976563 C 193.496094 72.746094 193.875 72.378906 195.09375 72.394531 C 200.128906 72.453125 205.160156 72.429688 210.195313 72.410156 C 212.328125 72.402344 213.40625 71.339844 213.453125 69.21875 C 213.492188 67.613281 213.472656 66.011719 213.464844 64.40625 C 213.453125 61.792969 212.539063 60.886719 209.910156 60.882813 C 204.964844 60.878906 200.019531 60.847656 195.078125 60.90625 C 193.824219 60.921875 193.394531 60.472656 193.519531 59.273438 C 193.652344 57.945313 193.644531 56.601563 193.8125 55.28125 C 194.371094 50.847656 196.160156 48.519531 199.929688 47.636719 C 203.855469 46.714844 207.828125 46.421875 211.851563 47.183594 C 213.328125 47.460938 214.855469 47.542969 216.359375 47.566406 C 218.476563 47.601563 219.5625 46.492188 219.617188 44.378906 C 219.652344 42.910156 219.636719 41.4375 219.625 39.96875 C 219.609375 37.855469 218.730469 36.75 216.625 36.378906 C 214.964844 36.082031 213.28125 35.851563 211.597656 35.710938 C 205.007813 35.164063 198.425781 35.085938 191.9375 36.640625 C 186.003906 38.0625 181.304688 41.171875 179.289063 47.171875 C 178.324219 50.046875 177.65625 53.148438 177.5625 56.167969 C 177.320313 63.730469 177.480469 71.308594 177.480469 78.878906 M 439.496094 101.351563 C 438.808594 104.074219 437.878906 106.503906 436.09375 108.515625 C 434.132813 110.726563 431.667969 111.488281 428.746094 111.039063 C 426.730469 110.726563 424.691406 110.484375 422.65625 110.40625 C 420.761719 110.332031 419.675781 111.492188 419.632813 113.378906 C 419.59375 114.933594 419.613281 116.492188 419.621094 118.054688 C 419.632813 120.171875 420.503906 121.347656 422.648438 121.570313 C 426.851563 122.003906 431.066406 122.488281 435.277344 122.53125 C 442.210938 122.601563 447.472656 119.382813 450.695313 113.285156 C 452.453125 109.964844 454.019531 106.449219 455.046875 102.84375 C 459.476563 87.257813 463.679688 71.609375 467.957031 55.976563 C 468.546875 53.820313 467.628906 52.660156 465.347656 52.652344 C 462.363281 52.640625 459.378906 52.640625 456.394531 52.652344 C 454.1875 52.660156 452.6875 53.789063 452.0625 55.902344 C 451.753906 56.925781 451.484375 57.960938 451.199219 58.988281 C 448.5 68.773438 445.789063 78.554688 443.121094 88.347656 C 442.832031 89.417969 442.34375 89.675781 441.3125 89.4375 C 439.621094 89.050781 438.3125 88.128906 437.257813 86.796875 C 435.289063 84.3125 434.113281 81.417969 433.183594 78.4375 C 430.878906 71.042969 428.664063 63.621094 426.40625 56.210938 C 425.6875 53.863281 424.09375 52.664063 421.6875 52.652344 C 418.660156 52.640625 415.632813 52.632813 412.605469 52.65625 C 410.496094 52.675781 409.617188 53.863281 410.230469 55.90625 C 412.726563 64.21875 415.191406 72.542969 417.777344 80.828125 C 419.257813 85.5625 421.21875 90.097656 424.296875 94.0625 C 427.082031 97.652344 430.632813 100.019531 435.152344 100.796875 C 436.503906 101.03125 437.875 101.148438 439.496094 101.351563 M 256.761719 101.082031 C 256.835938 101.511719 256.878906 101.679688 256.886719 101.855469 C 257.050781 104.503906 257.890625 105.304688 260.535156 105.308594 C 263.117188 105.3125 265.703125 105.320313 268.285156 105.304688 C 270.636719 105.292969 271.597656 104.332031 271.601563 101.960938 C 271.609375 91.945313 271.605469 81.925781 271.601563 71.90625 C 271.601563 68.609375 271.003906 65.4375 269.503906 62.480469 C 266.722656 56.972656 261.957031 54.125 256.1875 52.679688 C 250.886719 51.351563 245.507813 51.488281 240.121094 51.917969 C 236.246094 52.226563 232.433594 52.878906 228.847656 54.476563 C 224.46875 56.425781 221.800781 59.628906 221.4375 64.550781 C 221.257813 67.046875 222.394531 68.375 224.855469 68.386719 C 226.949219 68.398438 229.039063 68.386719 231.132813 68.390625 C 233.351563 68.394531 235.183594 67.613281 236.671875 65.921875 C 237.304688 65.199219 238.101563 64.5625 238.9375 64.097656 C 241.132813 62.875 243.5625 62.53125 246.035156 62.550781 C 252.242188 62.589844 254.769531 64.933594 255.421875 71.0625 C 255.558594 72.316406 255.195313 72.707031 253.9375 72.691406 C 248.996094 72.636719 244.054688 72.664063 239.113281 72.671875 C 235.339844 72.679688 231.652344 73.234375 228.140625 74.65625 C 221.628906 77.296875 217.894531 81.945313 217.683594 89.167969 C 217.492188 95.589844 220.960938 100.941406 227.304688 103.878906 C 230.761719 105.480469 234.4375 106.097656 238.191406 106.277344 C 244.011719 106.550781 249.535156 105.488281 254.578125 102.421875 C 255.253906 102.015625 255.921875 101.597656 256.761719 101.082031 M 301.738281 82.074219 L 301.371094 82.085938 C 301.226563 81.632813 301.074219 81.1875 300.9375 80.730469 C 298.617188 72.921875 296.3125 65.109375 293.980469 57.304688 C 293.128906 54.460938 291.035156 52.765625 288.128906 52.683594 C 284.96875 52.597656 281.804688 52.632813 278.644531 52.667969 C 277.273438 52.683594 276.605469 53.382813 276.59375 54.765625 C 276.589844 55.464844 276.699219 56.1875 276.886719 56.863281 C 277.269531 58.238281 277.734375 59.585938 278.171875 60.941406 C 282.429688 74.207031 286.683594 87.476563 290.964844 100.734375 C 291.9375 103.75 294.117188 105.285156 297.269531 105.308594 C 299.230469 105.320313 301.1875 105.316406 303.148438 105.308594 C 306.605469 105.296875 308.757813 103.757813 309.800781 100.460938 C 312.574219 91.71875 315.316406 82.96875 318.070313 74.222656 C 318.203125 73.800781 318.378906 73.386719 318.65625 72.628906 C 318.949219 73.476563 319.121094 73.929688 319.265625 74.390625 C 322.003906 83.097656 324.734375 91.804688 327.480469 100.507813 C 328.488281 103.695313 330.691406 105.292969 334.046875 105.308594 C 335.960938 105.316406 337.875 105.316406 339.789063 105.308594 C 343.214844 105.296875 345.3125 103.816406 346.367188 100.558594 C 350.320313 88.316406 354.257813 76.066406 358.1875 63.816406 C 359.039063 61.148438 359.953125 58.488281 360.632813 55.773438 C 361.167969 53.652344 360.246094 52.664063 358.070313 52.652344 C 355.488281 52.640625 352.90625 52.648438 350.324219 52.652344 C 346.207031 52.65625 344.214844 54.15625 343.046875 58.109375 C 341.03125 64.9375 339.015625 71.769531 336.988281 78.597656 C 336.644531 79.773438 336.257813 80.933594 335.894531 82.101563 C 335.351563 81.382813 335.109375 80.648438 334.894531 79.90625 C 332.652344 72.257813 330.429688 64.605469 328.171875 56.964844 C 327.296875 53.992188 325.460938 52.660156 322.371094 52.652344 C 319.964844 52.644531 317.5625 52.648438 315.15625 52.652344 C 311.726563 52.652344 310.019531 53.902344 309.023438 57.238281 C 307.640625 61.886719 306.300781 66.550781 304.9375 71.207031 C 303.871094 74.832031 302.804688 78.453125 301.738281 82.074219 M 484.574219 157.960938 L 12.5625 157.960938 C 12.230469 157.867188 11.902344 157.722656 11.566406 157.683594 C 6.191406 157.09375 1.964844 153.476563 0.527344 148.226563 C 0.367188 147.636719 0.175781 147.054688 0 146.46875 L 0 11.492188 C 0.105469 11.207031 0.242188 10.929688 0.308594 10.636719 C 1.523438 5.269531 4.765625 1.863281 10.121094 0.519531 C 10.929688 0.316406 11.75 0.171875 12.5625 0 L 484.574219 0 C 484.90625 0.09375 485.230469 0.238281 485.570313 0.273438 C 490.945313 0.867188 495.195313 4.503906 496.609375 9.734375 C 496.769531 10.324219 496.960938 10.90625 497.136719 11.492188 L 497.136719 146.46875 C 497.03125 146.75 496.894531 147.027344 496.824219 147.320313 C 495.609375 152.6875 492.367188 156.09375 487.011719 157.441406 C 486.207031 157.644531 485.386719 157.789063 484.574219 157.960938 "/>
<path style=" stroke:none;fill-rule:nonzero;fill:rgb(0%,42.698669%,58.399963%);fill-opacity:1;" d="M 301.738281 82.074219 C 302.804688 78.453125 303.875 74.832031 304.9375 71.207031 C 306.300781 66.550781 307.640625 61.886719 309.023438 57.238281 C 310.019531 53.902344 311.722656 52.65625 315.15625 52.652344 C 317.5625 52.648438 319.96875 52.644531 322.371094 52.652344 C 325.460938 52.660156 327.296875 53.992188 328.175781 56.964844 C 330.429688 64.605469 332.652344 72.257813 334.894531 79.90625 C 335.109375 80.648438 335.347656 81.382813 335.894531 82.101563 C 336.261719 80.933594 336.644531 79.773438 336.992188 78.597656 C 339.015625 71.769531 341.03125 64.941406 343.046875 58.109375 C 344.214844 54.15625 346.207031 52.65625 350.324219 52.652344 C 352.90625 52.648438 355.488281 52.640625 358.070313 52.652344 C 360.246094 52.664063 361.167969 53.652344 360.636719 55.777344 C 359.953125 58.492188 359.042969 61.148438 358.183594 63.820313 C 354.257813 76.066406 350.320313 88.316406 346.367188 100.558594 C 345.3125 103.816406 343.214844 105.296875 339.789063 105.308594 C 337.875 105.316406 335.960938 105.316406 334.046875 105.308594 C 330.691406 105.292969 328.488281 103.695313 327.480469 100.507813 C 324.734375 91.804688 322.007813 83.097656 319.265625 74.390625 C 319.121094 73.929688 318.949219 73.480469 318.65625 72.628906 C 318.378906 73.386719 318.207031 73.800781 318.070313 74.222656 C 315.316406 82.96875 312.574219 91.71875 309.800781 100.460938 C 308.757813 103.757813 306.605469 105.296875 303.148438 105.308594 C 301.1875 105.316406 299.230469 105.320313 297.269531 105.308594 C 294.117188 105.285156 291.9375 103.75 290.964844 100.734375 C 286.683594 87.476563 282.429688 74.207031 278.171875 60.941406 C 277.734375 59.585938 277.269531 58.238281 276.886719 56.867188 C 276.699219 56.1875 276.589844 55.464844 276.59375 54.765625 C 276.601563 53.382813 277.273438 52.683594 278.640625 52.671875 C 281.804688 52.636719 284.96875 52.597656 288.128906 52.683594 C 291.035156 52.765625 293.128906 54.460938 293.980469 57.304688 C 296.3125 65.109375 298.617188 72.921875 300.9375 80.730469 C 301.074219 81.1875 301.226563 81.632813 301.371094 82.085938 "/>
<path style=" stroke:none;fill-rule:nonzero;fill:rgb(0%,42.698669%,58.399963%);fill-opacity:1;" d="M 247.21875 83.554688 L 247.21875 83.625 C 244.773438 83.625 242.320313 83.515625 239.882813 83.65625 C 237.492188 83.796875 235.484375 84.8125 234.414063 87.113281 C 232.855469 90.476563 234.800781 94.242188 238.710938 95.019531 C 244.628906 96.199219 249.953125 94.332031 254.941406 91.292969 C 255.257813 91.101563 255.445313 90.476563 255.460938 90.042969 C 255.519531 88.3125 255.445313 86.574219 255.5 84.839844 C 255.527344 83.839844 255.117188 83.519531 254.15625 83.539063 C 251.84375 83.582031 249.53125 83.554688 247.21875 83.554688 M 256.761719 101.082031 C 255.921875 101.597656 255.253906 102.015625 254.578125 102.421875 C 249.535156 105.488281 244.011719 106.550781 238.191406 106.277344 C 234.4375 106.097656 230.761719 105.480469 227.304688 103.878906 C 220.960938 100.941406 217.492188 95.589844 217.683594 89.167969 C 217.894531 81.945313 221.628906 77.296875 228.140625 74.65625 C 231.652344 73.234375 235.339844 72.679688 239.113281 72.671875 C 244.054688 72.664063 248.996094 72.636719 253.9375 72.691406 C 255.195313 72.707031 255.558594 72.316406 255.425781 71.0625 C 254.765625 64.933594 252.242188 62.589844 246.035156 62.550781 C 243.566406 62.53125 241.132813 62.875 238.9375 64.097656 C 238.101563 64.5625 237.304688 65.199219 236.671875 65.921875 C 235.183594 67.613281 233.351563 68.394531 231.136719 68.390625 C 229.042969 68.386719 226.949219 68.398438 224.855469 68.386719 C 222.394531 68.375 221.257813 67.046875 221.441406 64.550781 C 221.800781 59.628906 224.46875 56.425781 228.847656 54.476563 C 232.433594 52.878906 236.246094 52.226563 240.121094 51.917969 C 245.507813 51.488281 250.886719 51.351563 256.1875 52.679688 C 261.957031 54.125 266.722656 56.972656 269.507813 62.480469 C 271.003906 65.4375 271.601563 68.609375 271.601563 71.90625 C 271.605469 81.925781 271.609375 91.945313 271.597656 101.960938 C 271.597656 104.332031 270.636719 105.292969 268.285156 105.304688 C 265.703125 105.320313 263.117188 105.3125 260.535156 105.308594 C 257.890625 105.304688 257.050781 104.503906 256.886719 101.855469 C 256.878906 101.679688 256.835938 101.511719 256.761719 101.082031 "/>
<path style=" stroke:none;fill-rule:nonzero;fill:rgb(0%,42.698669%,58.399963%);fill-opacity:1;" d="M 439.496094 101.351563 C 437.875 101.148438 436.503906 101.03125 435.152344 100.796875 C 430.632813 100.019531 427.082031 97.652344 424.296875 94.0625 C 421.21875 90.097656 419.257813 85.5625 417.777344 80.828125 C 415.191406 72.542969 412.726563 64.21875 410.230469 55.90625 C 409.617188 53.863281 410.496094 52.675781 412.601563 52.65625 C 415.632813 52.632813 418.660156 52.640625 421.6875 52.652344 C 424.09375 52.664063 425.6875 53.863281 426.40625 56.210938 C 428.667969 63.621094 430.882813 71.042969 433.183594 78.4375 C 434.113281 81.417969 435.289063 84.3125 437.257813 86.796875 C 438.3125 88.128906 439.621094 89.050781 441.3125 89.4375 C 442.34375 89.675781 442.832031 89.414063 443.121094 88.347656 C 445.789063 78.554688 448.5 68.773438 451.199219 58.988281 C 451.484375 57.960938 451.757813 56.925781 452.058594 55.902344 C 452.6875 53.789063 454.1875 52.660156 456.394531 52.652344 C 459.378906 52.640625 462.363281 52.640625 465.347656 52.652344 C 467.628906 52.664063 468.550781 53.820313 467.957031 55.976563 C 463.683594 71.609375 459.476563 87.257813 455.046875 102.84375 C 454.019531 106.449219 452.453125 109.964844 450.695313 113.285156 C 447.472656 119.382813 442.210938 122.601563 435.277344 122.53125 C 431.066406 122.492188 426.851563 122.003906 422.648438 121.570313 C 420.503906 121.347656 419.632813 120.171875 419.621094 118.054688 C 419.613281 116.496094 419.59375 114.933594 419.632813 113.375 C 419.675781 111.492188 420.761719 110.332031 422.65625 110.40625 C 424.691406 110.484375 426.730469 110.726563 428.746094 111.039063 C 431.667969 111.488281 434.132813 110.726563 436.09375 108.515625 C 437.878906 106.5 438.808594 104.078125 439.496094 101.351563 "/>
<path style=" stroke:none;fill-rule:nonzero;fill:rgb(0%,42.698669%,58.399963%);fill-opacity:1;" d="M 177.480469 78.878906 C 177.480469 71.308594 177.320313 63.730469 177.5625 56.167969 C 177.65625 53.148438 178.324219 50.046875 179.289063 47.171875 C 181.304688 41.171875 186.003906 38.0625 191.9375 36.640625 C 198.425781 35.085938 205.007813 35.164063 211.597656 35.710938 C 213.28125 35.851563 214.964844 36.082031 216.625 36.378906 C 218.730469 36.75 219.609375 37.855469 219.625 39.96875 C 219.636719 41.4375 219.65625 42.910156 219.617188 44.378906 C 219.5625 46.492188 218.476563 47.601563 216.359375 47.566406 C 214.855469 47.542969 213.328125 47.460938 211.851563 47.183594 C 207.828125 46.421875 203.855469 46.714844 199.929688 47.636719 C 196.160156 48.519531 194.371094 50.847656 193.8125 55.28125 C 193.644531 56.601563 193.652344 57.945313 193.519531 59.273438 C 193.394531 60.472656 193.824219 60.921875 195.078125 60.90625 C 200.019531 60.847656 204.964844 60.878906 209.910156 60.882813 C 212.539063 60.886719 213.453125 61.792969 213.464844 64.40625 C 213.472656 66.011719 213.492188 67.613281 213.453125 69.21875 C 213.40625 71.339844 212.328125 72.402344 210.195313 72.410156 C 205.160156 72.429688 200.128906 72.453125 195.097656 72.394531 C 193.875 72.378906 193.496094 72.746094 193.503906 73.976563 C 193.546875 83.199219 193.527344 92.417969 193.523438 101.636719 C 193.523438 104.429688 192.644531 105.304688 189.851563 105.308594 C 186.910156 105.3125 183.972656 105.3125 181.03125 105.308594 C 178.304688 105.304688 177.402344 104.421875 177.398438 101.730469 C 177.394531 94.113281 177.394531 86.496094 177.394531 78.878906 "/>
<path style=" stroke:none;fill-rule:nonzero;fill:rgb(0%,42.698669%,58.399963%);fill-opacity:1;" d="M 383.761719 58.53125 C 385.230469 57.546875 386.355469 56.761719 387.507813 56.019531 C 392.714844 52.652344 398.519531 51.59375 404.597656 51.664063 C 406.347656 51.6875 407.414063 52.773438 407.460938 54.546875 C 407.527344 56.996094 407.53125 59.449219 407.453125 61.894531 C 407.398438 63.773438 406.378906 64.789063 404.488281 64.800781 C 402.265625 64.820313 400.027344 64.78125 397.816406 64.566406 C 393.371094 64.132813 389.769531 65.753906 386.507813 68.648438 C 384.507813 70.425781 383.632813 72.339844 383.695313 75.117188 C 383.890625 83.933594 383.769531 92.753906 383.765625 101.574219 C 383.761719 104.40625 382.847656 105.308594 379.988281 105.308594 C 376.914063 105.3125 373.839844 105.320313 370.769531 105.304688 C 368.636719 105.292969 367.554688 104.230469 367.554688 102.09375 C 367.542969 86.683594 367.542969 71.273438 367.550781 55.859375 C 367.554688 53.730469 368.628906 52.664063 370.765625 52.65625 C 374.0625 52.640625 377.355469 52.636719 380.652344 52.65625 C 382.621094 52.671875 383.695313 53.742188 383.757813 55.710938 C 383.78125 56.542969 383.761719 57.378906 383.761719 58.53125 "/>
<path style=" stroke:none;fill-rule:nonzero;fill:rgb(100%,82.398987%,15.699768%);fill-opacity:1;" d="M 247.21875 83.554688 C 249.53125 83.554688 251.84375 83.582031 254.15625 83.539063 C 255.117188 83.519531 255.527344 83.839844 255.5 84.839844 C 255.445313 86.574219 255.519531 88.3125 255.460938 90.042969 C 255.445313 90.476563 255.257813 91.101563 254.941406 91.292969 C 249.953125 94.332031 244.628906 96.199219 238.710938 95.019531 C 234.800781 94.242188 232.855469 90.476563 234.414063 87.113281 C 235.484375 84.8125 237.492188 83.796875 239.882813 83.65625 C 242.320313 83.515625 244.773438 83.625 247.21875 83.625 "/>
<path style=" stroke:none;fill-rule:nonzero;fill:rgb(100%,100%,100%);fill-opacity:1;" d="M 152.34375 78.488281 C 152.34375 112.941406 124.414063 140.875 89.960938 140.875 C 83.402344 140.875 77.082031 139.859375 71.140625 137.984375 C 62.199219 135.160156 54.125 130.375 47.429688 124.132813 C 35.214844 112.742188 27.574219 96.507813 27.574219 78.488281 C 27.574219 44.03125 55.503906 16.101563 89.960938 16.101563 C 97.417969 16.101563 104.570313 17.410156 111.199219 19.8125 C 119.816406 22.929688 127.550781 27.894531 133.925781 34.226563 C 145.300781 45.53125 152.34375 61.1875 152.34375 78.488281 "/>
<path style=" stroke:none;fill-rule:nonzero;fill:rgb(0%,42.698669%,58.399963%);fill-opacity:1;" d="M 118.902344 104.984375 L 110.503906 100.785156 C 110.503906 100.785156 96.175781 126.867188 71.140625 137.984375 C 62.199219 135.160156 54.125 130.375 47.429688 124.128906 C 52.914063 123.332031 61.808594 120.515625 71.171875 111.308594 C 86.453125 96.277344 89.960938 88.007813 89.960938 88.007813 L 83.410156 83.640625 C 81.160156 82.140625 81.59375 78.714844 84.148438 77.824219 L 112.96875 67.785156 C 114.929688 67.101563 117.023438 68.394531 117.292969 70.449219 L 121.574219 103.082031 C 121.769531 104.554688 120.230469 105.648438 118.902344 104.984375 "/>
<path style=" stroke:none;fill-rule:nonzero;fill:rgb(0%,42.698669%,58.399963%);fill-opacity:1;" d="M 127.585938 68.863281 C 126.878906 70.644531 124.277344 70.382813 123.949219 68.492188 L 122.027344 57.441406 L 107.78125 61.871094 C 106.203125 62.359375 104.800781 60.746094 105.503906 59.253906 C 107.355469 55.300781 110.128906 48.570313 112.257813 39.902344 C 114.277344 31.683594 112.808594 24.464844 111.199219 19.8125 C 119.816406 22.929688 127.554688 27.894531 133.929688 34.226563 C 135.078125 47.300781 130.601563 61.222656 127.585938 68.863281 "/>
</g>
</svg>
