<svg width="31" height="20" viewBox="0 0 31 20" fill="none" xmlns="http://www.w3.org/2000/svg">
<path fill-rule="evenodd" clip-rule="evenodd" d="M0.088623 19.9135H30.9228V0.0771484H0.088623V19.9135Z" fill="white"/>
<path fill-rule="evenodd" clip-rule="evenodd" d="M0.0777588 0.0772095H30.9222V6.88028H0.0777588V0.0772095Z" fill="#CC2229"/>
<path fill-rule="evenodd" clip-rule="evenodd" d="M0.0776367 13.1202H30.9221V19.9232H0.0776367V13.1202Z" fill="black" stroke="black" stroke-width="0.154223" stroke-miterlimit="2.613" stroke-linejoin="bevel"/>
<path fill-rule="evenodd" clip-rule="evenodd" d="M13.9268 11.4322L14.2455 10.9923L14.5951 10.358L15.9831 10.3376L16.7233 11.289L16.9292 11.5038L16.7542 11.5652L16.1166 10.7366H16.0861L16.0551 10.7673L16.3841 11.3299L16.2196 11.3913L15.8702 11.4937L15.4382 11.5857L15.0167 11.5447L14.5848 11.4118L14.2558 11.2788L14.4717 10.8389L14.1222 11.3708L14.0091 11.5652L13.9268 11.4322V11.4322Z" fill="#FFF237" stroke="black" stroke-width="0.154223" stroke-miterlimit="2.613" stroke-linejoin="bevel"/>
<path d="M15.7467 10.7571L16.1684 11.4118M14.698 10.5627L14.3895 11.3299L14.698 10.5627ZM14.5849 11.4118L14.8625 10.6751L14.5849 11.4118ZM14.7905 11.4732L14.9859 10.7877L14.7905 11.4732ZM15.0475 11.5448L15.1401 10.8902L15.0475 11.5448ZM15.3457 11.5652L15.2737 10.9717L15.3457 11.5652ZM15.4588 10.9719L15.6027 11.5245L15.4588 10.9719ZM15.8702 11.4938L15.6233 10.9003L15.8702 11.4938Z" stroke="black" stroke-width="0.154223" stroke-miterlimit="2.613" stroke-linejoin="bevel"/>
<path fill-rule="evenodd" clip-rule="evenodd" d="M14.9962 8.20972V8.29156L14.9036 8.75192L14.8831 8.82353H14.8111L14.7597 8.77238L14.5232 8.30179L14.3793 8.06649L14.2456 7.97442L14.0503 7.91304L13.8343 7.9335L13.6184 8.0358L13.3203 8.2711L13.0324 8.52685L13.166 8.711L12.8679 9.21227L13.0324 9.30435L12.7137 9.79539L12.981 9.91816L12.6622 10.5115L13.0324 10.5627L12.8782 10.9719L12.6108 11.6164L12.7651 11.4937L12.8473 11.4118L13.0529 11.3402L13.2175 11.2788L13.3203 11.1765L13.4334 11.1458L13.567 11.023L13.5773 10.9923L13.7212 10.9003L13.7932 10.7877L13.9372 10.6854L14.0194 10.6036L14.1017 10.5115L14.225 10.44L14.3279 10.3684L14.4307 10.2762L14.4615 10.3274L14.5849 10.44L14.7905 10.7673L14.9859 10.9719L15.1607 11.0537L15.2943 11.0742L15.4588 11.0332L15.6028 10.9616L15.716 10.8186L15.7776 10.7263L15.9112 10.5115L15.9832 10.3274L16.0344 10.1841H16.0654L16.1167 10.215L16.2197 10.4808L16.2813 10.6036L16.4149 10.7263L16.4868 10.7366L16.5795 10.798L16.7337 10.7877L16.8263 10.8491L16.9085 10.9207L17.0012 10.9616L17.1037 11.0742L17.2374 11.1765L17.4123 11.2481L17.4946 11.3299L17.6694 11.4118L17.8133 11.4322H17.9163L17.6898 11.0026L17.6078 10.7059L17.5561 10.44L17.7823 10.3684L17.8647 10.3376L17.6078 9.77493L17.844 9.62148L17.6281 9.19181L17.5768 9.02813L17.762 8.9156L17.4432 8.42455L17.5768 8.21995L17.4432 8.13811L17.2374 7.98465L17.0525 7.82097L16.888 7.73913L16.7337 7.69821L16.5691 7.71867L16.4046 7.79028L16.2197 7.95396L16.0654 8.13811L15.9625 8.40409L15.9112 8.59846L15.8599 8.74169L15.8083 8.84399L15.7467 8.82353L15.726 8.75192L15.5821 8.02557L15.5102 7.80051L15.4074 7.68798L15.2738 7.65729L15.099 7.66752L14.9447 7.74936L14.7802 7.88235L14.9962 8.20972V8.20972Z" fill="#FFF237" stroke="black" stroke-width="0.154223" stroke-miterlimit="2.613" stroke-linejoin="bevel"/>
<path fill-rule="evenodd" clip-rule="evenodd" d="M14.9036 7.79024L14.8213 7.83116L14.7185 7.89254L14.6568 7.94369L14.626 7.97438V7.98461L14.6568 8.00507H14.7185L14.7699 8.0153L14.8625 8.03576L14.8522 7.97438V7.89254L14.8625 7.84139L14.9036 7.79024ZM15.1606 7.83116C15.1606 7.86185 15.1401 7.89254 15.0989 7.89254C15.0681 7.89254 15.0475 7.86185 15.0475 7.83116C15.0475 7.80047 15.0681 7.76978 15.0989 7.76978C15.1401 7.76978 15.1606 7.80047 15.1606 7.83116Z" fill="#FFF237" stroke="black" stroke-width="0.154223" stroke-miterlimit="2.613" stroke-linejoin="bevel"/>
<path d="M17.4431 8.43476L17.3814 8.33246L17.1652 8.13809L16.9083 7.97441L16.7334 7.91302H16.5791L16.4662 7.97441L16.353 8.06648M14.5848 9.43732L14.5641 9.61123L14.4921 9.89768L14.4407 10.133L14.4304 10.2762L14.5848 9.43732ZM14.1221 10.491L14.1633 10.2557L14.2558 9.84667L14.41 9.29424L14.1221 10.491ZM14.3072 9.1918L14.1838 9.41686L14.0193 9.80561L13.9062 10.2148L13.8137 10.5933L13.7931 10.7876L14.3072 9.1918ZM13.5772 10.9923L13.6389 10.5933L13.7313 10.133L13.8444 9.76469L13.9678 9.46801L14.0912 9.25318L14.194 9.13042L14.2557 9.06903L13.5772 10.9923ZM14.2147 9.00765L14.1221 9.02811L13.9885 9.13042L13.8754 9.25318L13.752 9.52939L13.5567 10.0715L13.4333 10.542L13.3305 11.0023L13.3202 11.1763L14.2147 9.00765ZM13.0529 11.3401L13.1454 10.9207L13.3202 10.2762L13.4847 9.76469L13.5978 9.48847L13.7314 9.22249L13.8445 9.0588L13.9679 8.9565L14.0707 8.91558H14.1941L13.0529 11.3401ZM14.1941 8.77236H14.1221L13.9679 8.78259L13.8034 8.91558L13.6184 9.08949L13.4333 9.43732L13.1865 10.133L13.0323 10.5729L14.1941 8.77236ZM12.9809 9.91814L13.1865 9.48847L13.4024 9.03834L13.6184 8.72121L13.7931 8.57799L13.9268 8.53707H14.0502L14.2147 8.57799L12.9809 9.91814ZM14.0913 8.33246L14.0399 8.30177H13.9268L13.7212 8.38361L13.5361 8.52684L13.2996 8.87466L13.0323 9.30433L14.0913 8.33246ZM13.1454 8.72121L13.3819 8.43476L13.5567 8.25062L13.7314 8.15855L13.9062 8.11763H14.0399L14.1838 8.15855L14.2558 8.2097L13.1454 8.72121ZM14.6979 9.98989L14.6157 10.1331L14.5128 10.225L14.4409 10.2866L14.6979 9.98989ZM14.7493 10.1227L14.7185 10.2455L14.6671 10.3374L14.5951 10.4602L14.7493 10.1227ZM14.8521 10.3376L14.811 10.5116L14.7288 10.6855L14.8521 10.3376ZM14.9961 10.5115L14.9447 10.757L14.883 10.8695L14.9961 10.5115ZM15.1606 10.5626L15.1195 10.9412L15.0989 11.023L15.1606 10.5626ZM15.3045 10.624L15.3251 10.9207L15.3456 11.0537L15.3045 10.624ZM15.4073 10.6036L15.4793 10.7877L15.5616 10.9718L15.4073 10.6036ZM15.5616 10.491L15.6232 10.6752L15.7158 10.8185L15.5616 10.491ZM15.6232 10.2864L15.7465 10.5115L15.8494 10.6034L15.6232 10.2864ZM15.7259 10.0921L15.8289 10.2762L15.9421 10.4092L15.7259 10.0921ZM15.7775 9.89768L15.8597 10.0511L16.0344 10.1841L15.7775 9.89768ZM16.0963 10.215L15.9934 9.79538L15.8904 9.41686L16.0963 10.215ZM16.0141 9.2941L16.1168 9.41686L16.2197 9.70331L16.3327 10.2455L16.4356 10.5625L16.4973 10.7569L16.0141 9.2941ZM16.0963 9.21226L16.1683 9.22249L16.23 9.27364L16.3327 9.43732L16.4356 9.79538L16.5796 10.2762L16.7235 10.6854L16.7338 10.7877L16.0963 9.21226ZM16.2196 9.03834H16.2708L16.3634 9.06903L16.4866 9.16111L16.6206 9.37594L16.7542 9.79538L16.9701 10.757L17.0011 10.9616L16.2196 9.03834ZM16.3123 8.91558L16.3842 8.89512L16.4972 8.92581L16.6207 8.98719L16.7646 9.14065L16.8879 9.35548L17.0215 9.70331L17.217 10.491L17.3403 11.023L17.402 11.2481L16.3123 8.91558ZM17.556 10.4603L17.4738 10.133L17.3096 9.64192L17.1244 9.21226L16.9084 8.91558L16.7232 8.74167L16.631 8.72107L16.5487 8.71084L16.4148 8.72107L17.556 10.4603ZM16.4665 8.52684L16.5487 8.46545L16.631 8.43476H16.7439L16.8572 8.48591L16.9701 8.57799L17.258 8.98719L17.4739 9.43732L17.6079 9.79538L16.4665 8.52684ZM16.4665 8.33246L16.5487 8.25062L16.672 8.21993H16.7337L16.8673 8.25062L17.0731 8.36315L17.289 8.59845L17.5049 8.89512L17.5769 9.03834L16.4665 8.33246Z" stroke="black" stroke-width="0.154223" stroke-miterlimit="2.613" stroke-linejoin="bevel"/>
<path fill-rule="evenodd" clip-rule="evenodd" d="M14.2558 8.20966L14.2147 8.17897H14.1633L14.0913 8.24035L14.0707 8.30173V8.36311L14.1427 8.56771L14.1838 8.69047V8.91554L14.2147 9.05876L14.2764 9.19175L14.3895 9.35544L14.5231 9.44751L14.6774 9.48843L14.811 9.2429L14.6979 9.1406L14.5643 8.92577L14.4614 8.71093L14.3895 8.46541L14.3381 8.32219L14.2558 8.20966ZM15.7775 9.21221L15.8599 9.16106L15.9831 9.02807L16.1579 8.63932L16.2506 8.25058L16.2813 8.11758L16.3532 8.04597L16.4148 8.02551H16.4868L16.5383 8.04597V8.24035L16.4665 8.52679L16.4458 8.75186L16.4148 8.89508L16.3532 8.98715L16.2506 9.08945L16.1579 9.25313L16.0861 9.33498L15.9934 9.44751L15.8904 9.50889H15.8599L15.7775 9.44751V9.21221V9.21221Z" fill="#FFF237" stroke="black" stroke-width="0.154223" stroke-miterlimit="2.613" stroke-linejoin="bevel"/>
<path fill-rule="evenodd" clip-rule="evenodd" d="M14.6775 9.12019L14.8111 9.1918L15.0168 9.23272L15.243 9.24295L15.4486 9.23272L15.6234 9.20203L15.7983 9.16111L15.9113 9.09973L15.9215 9.29411L15.9113 9.57032L15.86 9.9693L15.7776 10.215L15.7161 10.3785L15.5925 10.5729L15.4486 10.6854L15.3252 10.7263L15.1607 10.7059L14.9962 10.6036L14.9037 10.491L14.8009 10.3376L14.7186 10.0921L14.6672 9.87723L14.6569 9.58055V9.37595L14.6672 9.20203L14.6775 9.12019V9.12019Z" fill="#FFF237" stroke="black" stroke-width="0.154223" stroke-miterlimit="2.613" stroke-linejoin="bevel"/>
<path d="M14.9653 8.71096L15.027 8.75188L15.1195 8.77234L15.2532 8.75188L15.3251 8.74165H15.4588M15.0475 8.40405L15.0887 8.43474L15.1401 8.4552H15.2017L15.2737 8.46543L15.3765 8.4552L15.0475 8.40405Z" stroke="black" stroke-width="0.154223" stroke-miterlimit="2.613" stroke-linejoin="bevel"/>
<path fill-rule="evenodd" clip-rule="evenodd" d="M13.3614 12.0767L13.1044 12.3836L13.0735 12.2097V12.0869L13.1044 12.0051L13.3511 11.8723L13.3614 12.0767V12.0767Z" fill="#FFF237" stroke="black" stroke-width="0.154223" stroke-miterlimit="2.613" stroke-linejoin="bevel"/>
<path fill-rule="evenodd" clip-rule="evenodd" d="M13.0735 12.0767L13.1044 12.0461L13.2072 12.0154L13.2997 12.0461L13.3614 12.1074L13.4951 12.1893L13.5671 12.2097L13.6493 12.1893L13.7213 12.0973L13.7727 11.6778L13.6596 11.5959L13.5671 11.5448L13.5465 11.5345L13.5054 11.5448L13.4334 11.5857L13.2689 11.8005L13.1044 12.0256L13.0735 12.0767Z" fill="#FFF237" stroke="black" stroke-width="0.154223" stroke-miterlimit="2.613" stroke-linejoin="bevel"/>
<path fill-rule="evenodd" clip-rule="evenodd" d="M13.5876 11.7391L13.567 11.78L13.5568 11.8414L13.567 11.9335L13.6185 12.0051L13.6699 12.0767L13.6801 12.1586L13.6596 12.179L13.6904 12.1586L13.968 11.7391L13.7213 11.6777L13.5876 11.7391V11.7391ZM17.3404 11.7289L17.4123 11.8312L17.4739 11.913L17.5256 11.8723L17.5768 11.8005L17.5975 11.7289L17.5768 11.6777L17.4019 11.6266L17.3404 11.7289V11.7289Z" fill="#FFF237" stroke="black" stroke-width="0.154223" stroke-miterlimit="2.613" stroke-linejoin="bevel"/>
<path fill-rule="evenodd" clip-rule="evenodd" d="M16.9391 11.5857L17.0421 11.5243L17.1346 11.4629L17.2169 11.4118L17.2993 11.3913L17.3815 11.4118L17.4328 11.4527L17.5767 11.6777L17.587 11.7188V11.7494L17.5767 11.7188L17.5255 11.6982H17.4842L17.4431 11.7188L17.2169 11.9028L17.0421 12.0358L16.8776 12.1074L16.8469 12.0973L16.8262 12.0869L16.7849 12.0051V11.8005L16.9391 11.5857V11.5857Z" fill="#FFF237" stroke="black" stroke-width="0.154223" stroke-miterlimit="2.613" stroke-linejoin="bevel"/>
<path fill-rule="evenodd" clip-rule="evenodd" d="M16.8262 12.0767L16.8159 12.0665V12.0051L16.8672 11.9438L17.0318 11.8619L17.1244 11.7902L17.1347 11.7596V11.7188L17.1244 11.6879L17.0731 11.6675L16.8672 11.6777L16.6514 11.8823L16.7337 11.9948L16.8057 12.0767H16.8262V12.0767Z" fill="#FFF237" stroke="black" stroke-width="0.154223" stroke-miterlimit="2.613" stroke-linejoin="bevel"/>
<path fill-rule="evenodd" clip-rule="evenodd" d="M13.5568 11.8107L13.567 11.7903L13.5979 11.7801L13.6493 11.7903L13.7624 11.8723L13.9886 11.9847L14.3382 12.1177L14.5644 12.1586L15.0579 12.2302L15.3046 12.2404L15.716 12.2097L16.1374 12.1381L16.4459 12.0154L16.7233 11.8824L16.9085 11.7596L16.9805 11.7084L17.0525 11.688L17.1245 11.6982L17.1347 11.7188L16.96 11.4221L16.919 11.3811L16.847 11.3708L16.7543 11.4118L16.6311 11.4732L16.5281 11.5345L16.2917 11.6266L16.1167 11.6778L15.829 11.7289L15.5 11.7698L14.9962 11.7391L14.4924 11.6472L14.1531 11.5038L14.0194 11.4118L13.9475 11.3708H13.8858L13.8344 11.3811L13.8138 11.4118L13.5773 11.7289L13.567 11.7596L13.5568 11.8107V11.8107Z" fill="#FFF237" stroke="black" stroke-width="0.154223" stroke-miterlimit="2.613" stroke-linejoin="bevel"/>
</svg>
