<svg width="31" height="20" viewBox="0 0 31 20" fill="none" xmlns="http://www.w3.org/2000/svg">
<g clip-path="url(#clip0)">
<path fill-rule="evenodd" clip-rule="evenodd" d="M-1.82355 0H31V20H-1.82355V0Z" fill="#199D00"/>
<path fill-rule="evenodd" clip-rule="evenodd" d="M6.44811 5.66922C6.4102 6.13645 6.36477 6.95871 6.79913 7.04305C7.32451 7.08922 7.03479 6.23031 7.22498 6.07457C7.26092 5.99762 7.32721 5.99723 7.33268 6.0943V6.82281C7.32789 7.05977 7.49829 7.12953 7.63065 7.17848C7.76844 7.16875 7.86042 7.17297 7.9144 7.29547L7.97902 8.55567C7.97902 8.55567 8.29853 8.63926 8.31375 7.84684C8.329 7.3816 8.21203 6.99215 8.28062 6.9016C8.28302 6.81266 8.4073 6.80734 8.49346 6.8507C8.63083 6.93922 8.69198 7.04856 8.90542 7.00485C9.23015 6.92305 9.42538 6.77867 9.43017 6.55078C9.41119 6.33418 9.38461 6.11758 9.28195 5.90098C9.29627 5.86156 9.21925 5.75953 9.23353 5.72012C9.29191 5.80367 9.38072 5.79672 9.40089 5.72012C9.34563 5.55367 9.25985 5.39418 9.12083 5.32512C9.00594 5.23262 8.83777 5.25152 8.77618 5.44449C8.74767 5.66684 8.86388 5.93102 9.04103 6.14637C9.07864 6.23051 9.13151 6.37031 9.10826 6.49621C9.01402 6.54539 8.91974 6.52488 8.84076 6.44867C8.84076 6.44867 8.58227 6.27148 8.58227 6.23211C8.65087 5.8307 8.59749 5.78519 8.55949 5.67379C8.53291 5.52 8.45307 5.4707 8.38841 5.36566C8.32375 5.30301 8.23626 5.30301 8.19446 5.36566C8.08018 5.54672 8.13347 5.93531 8.216 6.10941C8.27567 6.26949 8.36679 6.36996 8.3237 6.36996C8.28827 6.46043 8.21498 6.43953 8.16164 6.33512C8.08548 6.1193 8.07022 5.79727 8.07022 5.6523C8.0474 5.4725 8.02227 5.08902 7.89281 4.9916C7.81383 4.89332 7.69677 4.94125 7.65587 5.03098C7.64736 5.20941 7.64647 5.38781 7.66848 5.55227C7.75724 5.84066 7.78515 6.0943 7.82823 6.38965C7.8402 6.78527 7.57796 6.56129 7.58992 6.36516C7.6504 6.11039 7.63471 5.70937 7.58095 5.60773C7.53838 5.50609 7.48808 5.48102 7.38448 5.49773C7.3022 5.49316 7.09052 5.70441 7.03107 6.05484C7.03107 6.05484 6.98038 6.23523 6.9588 6.39539C6.92974 6.57637 6.79938 6.7041 6.70792 6.36992C6.62894 6.12707 6.58039 5.52914 6.44807 5.66918L6.44811 5.66922Z" fill="white"/>
<path fill-rule="evenodd" clip-rule="evenodd" d="M7.8757 7.58645C7.41207 7.7936 6.96369 7.98684 6.50763 8.18704C6.5243 7.9036 7.15807 7.39195 7.59024 7.38477C7.87155 7.39195 7.80086 7.48438 7.8757 7.58649V7.58645Z" fill="white"/>
<path fill-rule="evenodd" clip-rule="evenodd" d="M7.63687 7.97823C6.91587 9.67695 9.32528 9.91363 9.59453 8.0478C9.61988 7.97124 9.72147 7.89468 9.73925 8.01995C9.68339 9.70933 7.87557 9.82542 7.56836 9.29394C7.49225 9.16866 7.46934 8.89019 7.46173 8.72308C7.416 8.39128 7.22564 8.5189 7.19517 8.84839C7.16465 9.03171 7.1723 9.08284 7.1723 9.25917C7.26876 10.5935 9.59714 10.0203 9.97542 8.91804C10.176 8.30768 9.94239 7.85753 10.0515 7.85983C10.2826 8.08725 10.605 7.88999 10.6761 7.81108C10.7066 7.77163 10.7829 7.74616 10.8361 7.79718C11.0164 7.91561 11.3338 7.85979 11.3998 7.65096C11.438 7.44674 11.4684 7.23557 11.476 7.01749C11.3287 7.05928 11.2196 7.08706 11.2094 7.1428L11.179 7.32378C11.1663 7.38182 11.0392 7.38409 11.0342 7.30983C10.9784 7.07776 10.7473 7.0476 10.6077 7.40733C10.5137 7.47694 10.3436 7.49089 10.3258 7.38647C10.3486 7.1451 10.242 7.1126 10.0288 7.22631C9.96017 6.74827 9.89166 6.29116 9.82306 5.81307C9.91196 5.81072 9.99325 5.87104 10.0745 5.77822C9.98555 5.52533 9.79772 5.00779 9.69356 4.97064C9.64279 4.91498 9.59953 4.94978 9.53363 4.96369C9.42191 4.99619 9.3178 5.08439 9.35075 5.25611C9.48281 5.9894 9.56915 6.5487 9.70121 7.28202C9.72147 7.36788 9.64279 7.48151 9.54124 7.46991C9.36857 7.36319 9.32554 7.14741 9.03094 7.15663C8.81762 7.15897 8.5738 7.37014 8.54341 7.57444C8.50785 7.73678 8.49512 7.91311 8.54333 8.05475C8.69321 8.21948 8.87348 8.20331 9.03089 8.16616C9.16039 8.11745 9.26698 7.99909 9.31271 8.0269C9.34323 8.06175 9.32028 8.45151 8.7033 8.75093C8.3301 8.90405 8.03298 8.93894 7.87309 8.66042C7.77407 8.48636 7.8807 7.82499 7.63687 7.97819V7.97823Z" fill="white"/>
<path fill-rule="evenodd" clip-rule="evenodd" d="M10.6951 6.25126C10.8398 6.20251 11.5255 5.48548 11.5255 5.48548C11.4899 5.45763 11.4581 5.43673 11.4225 5.40888C11.3844 5.37872 11.3883 5.34856 11.4225 5.31837C11.5926 5.2279 11.5381 5.02946 11.4492 4.93899C11.3019 4.8786 11.1737 4.89837 11.0797 4.94243C10.9604 5.04688 10.9325 5.21392 11.0265 5.31837C11.118 5.35782 11.2093 5.44255 11.1483 5.48895C10.8678 5.76278 10.0997 6.23505 10.1886 6.25126C10.2076 6.27446 10.6799 6.27329 10.6951 6.25126V6.25126ZM6.55479 8.78915C6.29767 9.16352 6.27528 9.72286 6.41717 9.88962C6.49256 9.96841 6.61642 10.0029 6.70805 9.97825C6.8696 9.91419 6.94029 9.61505 6.90196 9.50559C6.84802 9.42848 6.80558 9.41626 6.75173 9.48188C6.63804 9.69282 6.59086 9.54809 6.5809 9.4302C6.56346 9.20665 6.5865 9.00075 6.61304 8.8377C6.64133 8.67059 6.61261 8.72169 6.55479 8.78915ZM17.5423 8.18954C17.2937 7.70044 16.9495 7.21712 16.84 7.03145C16.7305 6.84571 15.9038 5.74915 15.7821 5.62583C15.5135 5.33415 16.2182 5.74731 15.693 5.16817C15.4927 5.01114 15.4811 5.00157 15.3149 4.87345C15.231 4.81907 15.0263 4.71974 14.99 4.88438C14.9718 5.02958 14.9816 5.10829 15.0083 5.22919C15.0288 5.30977 15.1572 5.44474 15.2204 5.52294C16.0592 6.55341 16.8029 7.59403 17.5201 8.90243C17.6334 8.85321 17.6086 8.27138 17.5423 8.18954H17.5423Z" fill="white"/>
<path fill-rule="evenodd" clip-rule="evenodd" d="M16.4511 9.82575C16.4023 9.8759 16.5718 10.0904 16.7922 10.0902C17.1608 10.0511 17.4852 9.86192 17.7856 9.36383C17.866 9.24766 18.0072 8.99922 18.0113 8.80653C18.0394 7.67664 17.9494 6.79742 17.7642 5.98074C17.7523 5.90121 17.7596 5.8077 17.7743 5.78387C17.7982 5.75781 17.8791 5.78399 17.922 5.71965C17.985 5.66086 17.7548 5.17395 17.6235 4.98641C17.5769 4.90266 17.5606 4.84672 17.4835 4.99625C17.4023 5.11774 17.3478 5.32977 17.3542 5.52789C17.53 6.64051 17.584 7.61379 17.6989 8.72641C17.7083 8.83399 17.691 8.99036 17.6127 9.0527C17.3233 9.32895 16.9055 9.66899 16.4511 9.82575V9.82575ZM21.4298 9.81989C21.1653 9.95961 21.165 10.1204 21.3788 10.1262C21.7474 10.0871 22.1829 10.0591 22.4832 9.64457C22.5636 9.5284 22.6591 9.2143 22.6632 9.0216C22.6913 7.89172 22.6471 7.04836 22.4618 6.23176C22.45 6.15219 22.4115 5.9691 22.4262 5.94524C22.4501 5.8893 22.5702 5.95133 22.6132 5.88695C22.6761 5.8282 22.3021 5.38902 22.1708 5.20149C22.1243 5.11777 22.108 5.06184 22.0309 5.21133C21.9497 5.33285 21.9213 5.55086 21.9538 5.74301C22.1493 6.95114 22.2947 7.85875 22.3247 8.92953C22.3079 9.03118 22.3037 9.08598 22.2516 9.21403C22.1362 9.34918 22.0084 9.51813 21.8886 9.59981C21.7688 9.68145 21.5131 9.75942 21.4298 9.81993V9.81989Z" fill="white"/>
<path fill-rule="evenodd" clip-rule="evenodd" d="M21.6282 8.73673C21.6251 8.45419 21.6325 8.2102 21.6224 7.9995C21.6122 7.78876 21.5715 7.61716 21.4917 7.46759C21.4161 7.3072 21.463 7.17833 21.4276 7.00747C21.3921 6.83669 21.4008 6.58091 21.3473 6.37825C21.3326 6.29911 21.2876 6.04563 21.3016 6.02134C21.3234 5.96477 21.4065 6.02309 21.4471 5.95755C21.5079 5.89692 21.2361 5.25411 21.0982 5.07056C21.0487 4.98825 20.9586 5.01645 20.8476 5.15024C20.7446 5.23833 20.7828 5.43915 20.8222 5.63016C21.0866 6.89153 21.2839 8.03321 21.2408 9.23395C21.2276 9.33606 21.6309 8.92946 21.6282 8.73673V8.73673ZM19.6741 7.17227C19.5078 7.1695 19.1594 6.87641 19.0577 6.7047C19.0193 6.60622 19.044 6.51013 19.0778 6.45384C19.1394 6.41723 19.2342 6.3761 19.305 6.41556C19.305 6.41556 19.3785 6.50946 19.3642 6.52141C19.4551 6.56118 19.4936 6.53829 19.5028 6.50454C19.509 6.4454 19.476 6.41016 19.4756 6.34505C19.5141 6.16848 19.735 6.14102 19.8181 6.25364C19.879 6.32227 19.9013 6.46817 19.9105 6.56665C19.9096 6.61696 19.8204 6.55794 19.7698 6.57005C19.7191 6.58216 19.7069 6.63559 19.703 6.68391C19.6938 6.81196 19.6772 7.01743 19.6741 7.17223V7.17227ZM16.6042 9.05001C16.65 8.6661 16.5873 7.98239 16.5831 7.75587C16.5663 7.22071 16.4707 6.18704 16.4251 6.01434C16.3739 5.68884 16.5716 6.05005 16.5442 5.86083C16.4801 5.53579 16.2828 5.31544 16.0509 5.0177C15.9761 4.92083 15.9787 4.9011 15.8633 5.04145C15.7355 5.3063 15.8457 5.48852 15.8788 5.69481C16.046 6.36692 16.1436 6.98532 16.189 7.59665C16.2344 8.20798 16.2484 8.86899 16.2069 9.51286C16.3322 9.51735 16.5337 9.32755 16.6042 9.04997V9.05001Z" fill="white"/>
<path fill-rule="evenodd" clip-rule="evenodd" d="M22.1945 8.43521C21.9012 7.98541 21.4586 7.49822 21.3404 7.31708C21.2221 7.13591 20.222 5.95653 20.0946 5.83817C19.7287 5.48688 20.2624 5.78099 20.0245 5.50966C19.8234 5.30778 19.7647 5.24442 19.5925 5.12302C19.5062 5.07204 19.4539 4.97466 19.4255 5.14059C19.4142 5.28638 19.4024 5.45505 19.4132 5.5779C19.4126 5.64622 19.4904 5.77454 19.5572 5.85017C20.4442 6.84626 21.4118 7.86334 22.1906 9.14197C22.3015 9.08826 22.2646 8.51435 22.1945 8.43521V8.43521Z" fill="white"/>
<path fill-rule="evenodd" clip-rule="evenodd" d="M8.88647 7.60519C8.86535 7.63901 8.81834 7.68284 8.83411 7.7282C8.86702 7.76898 8.89335 7.77726 8.94823 7.77948C8.99584 7.77948 9.06234 7.78976 9.07666 7.76409C9.10231 7.73831 9.12175 7.68562 9.10043 7.63593C9.05085 7.52265 8.91237 7.56483 8.88647 7.60519V7.60519Z" fill="#1BA400"/>
<path fill-rule="evenodd" clip-rule="evenodd" d="M18.7839 14.1618C19.1762 14.175 19.4329 14.1782 19.7818 14.2161C19.7818 14.2161 20.0827 14.189 20.1901 14.1741C20.6442 14.1345 20.6643 14.7669 20.6643 14.7669C20.6594 15.1378 20.5027 15.1572 20.3027 15.1964C20.1885 15.2097 20.1285 15.1339 20.0684 15.0531C19.9931 15.082 19.8906 15.0861 19.7665 15.0704C19.603 15.061 19.4395 15.0616 19.2761 15.0523C19.1025 15.0383 19.0101 15.0688 18.8364 15.0548C18.8006 15.1062 18.7541 15.1773 18.6479 15.1544C18.5596 15.1455 18.4549 14.9188 18.4857 14.7464C18.5495 14.6228 18.532 14.6626 18.5253 14.6082C16.9215 14.5709 15.3024 14.5055 13.7292 14.5242C12.4983 14.5289 11.2826 14.5756 10.067 14.6223C9.41833 14.6129 8.9229 14.5196 8.58069 14.062C8.61133 14.062 10.2355 14.1461 10.7106 14.1181C11.5891 14.1087 12.391 14.0434 13.2848 14.02C15.0469 14.048 16.7938 14.0481 18.5558 14.1601C18.3872 14.0547 18.3812 13.8057 18.6406 13.7449C18.6627 13.731 18.6741 13.8687 18.7129 13.8661C18.9204 13.8519 18.8294 14.1088 18.7838 14.1618L18.7839 14.1618ZM11.7094 5.28446C11.4423 5.98208 11.8624 6.74517 12.1536 6.67087C12.3637 6.75036 12.4975 6.38505 12.5835 5.98482C12.6423 5.87247 12.6868 5.86052 12.717 5.91825C12.7093 6.45048 12.7589 6.56837 12.9086 6.72993C13.2425 6.96544 13.5188 6.76001 13.5405 6.74017L13.8005 6.50251C13.8584 6.44685 13.9354 6.44361 14.0172 6.49263C14.0966 6.55864 14.0855 6.67263 14.2555 6.75169C14.3987 6.80404 14.7047 6.7638 14.7757 6.65107C14.8711 6.50161 14.894 6.45028 14.9382 6.39361C15.0062 6.31075 15.1224 6.34759 15.1224 6.37376C15.1115 6.41997 15.0434 6.46622 15.0899 6.54943C15.1708 6.60493 15.1895 6.56923 15.2375 6.55689C15.4069 6.48286 15.5341 6.14603 15.5341 6.14603C15.5416 6.02071 15.4647 6.03107 15.4149 6.05689C15.3499 6.09321 15.3457 6.10482 15.2806 6.14114C15.1978 6.15239 15.0371 6.20259 14.9576 6.09017C14.8765 5.95497 14.8754 5.76634 14.8134 5.63001C14.8134 5.62009 14.7058 5.41525 14.806 5.40212C14.8565 5.41071 14.9644 5.43681 14.9815 5.3538C15.0345 5.27286 14.868 5.04372 14.754 4.92798C14.655 4.82868 14.5179 4.81673 14.3856 4.9181C14.2929 4.99603 14.3063 5.0831 14.2881 5.16564C14.2645 5.2604 14.2695 5.377 14.3748 5.50235C14.4673 5.66903 14.636 5.88372 14.5806 6.1856C14.5806 6.1856 14.482 6.32829 14.3103 6.30962C14.2386 6.29536 14.1226 6.26759 14.0606 5.84892C14.0136 5.53204 14.0716 5.08864 13.9245 4.88079C13.8713 4.75528 13.8325 4.63407 13.703 4.84876C13.6682 4.93306 13.5188 5.06099 13.6271 5.32411C13.7158 5.49091 13.7518 5.76239 13.7116 6.0645C13.6502 6.15032 13.6366 6.17939 13.5561 6.26525C13.443 6.37638 13.3202 6.34802 13.2262 6.3065C13.1384 6.25239 13.0696 6.22443 13.0296 6.05255C13.0368 5.7786 13.0535 5.33013 12.9987 5.23501C12.9179 5.08767 12.7848 5.14095 12.7278 5.18548C12.4544 5.41396 12.3194 5.79946 12.2368 6.10646C12.161 6.33017 12.0803 6.26607 12.0235 6.17579C11.8855 6.05751 11.8761 5.13243 11.7094 5.28454V5.28446Z" fill="white"/>
<path fill-rule="evenodd" clip-rule="evenodd" d="M12.5132 6.80086C12.6344 6.72235 12.5778 6.6675 12.7591 6.83321C12.9861 7.18797 13.1321 7.64746 13.154 8.05454C13.1444 8.15485 13.2218 8.21833 13.2571 8.19653C13.2782 7.96102 13.9048 7.63289 14.4793 7.58493C14.5672 7.56746 14.5244 7.41356 14.5388 7.33508C14.5043 7.04356 14.718 6.77813 15.0175 6.75696C15.4252 6.81203 15.5609 7.01094 15.5677 7.31457C15.5237 7.89747 14.8593 7.99629 14.4861 8.04278C14.4288 8.06258 14.4049 8.08672 14.4861 8.11528L16.0501 8.12176L16.1299 8.16387C16.1395 8.19797 16.1071 8.16954 16.0454 8.26247C15.9836 8.3554 15.8926 8.56969 15.8879 8.71278C15.4219 8.84973 14.9399 8.90973 14.45 8.96387C14.2798 9.04255 14.1955 9.14735 14.2304 9.26532C14.2877 9.39618 14.6647 9.52688 14.6647 9.53309C14.7363 9.57411 14.821 9.66989 14.6444 9.8661C13.8815 9.83544 13.2903 9.53868 13.0856 9.11985C13.024 9.07614 12.9575 9.11962 12.915 9.17622C12.6171 9.52716 12.3241 9.84317 11.8162 10.0109C11.5134 10.0801 11.2034 9.96848 11.057 9.78723C10.959 9.68407 10.9627 9.57016 10.9267 9.54548C10.763 9.61165 9.35456 10.1586 9.53308 9.90384C9.87584 9.56848 10.4693 9.32219 10.9934 8.99122C11.0313 8.88032 11.1 8.5052 11.307 8.38301C11.319 8.38391 11.2742 8.60333 11.2787 8.69583C11.2811 8.77176 11.2726 8.80153 11.2908 8.782C11.3262 8.76137 11.9621 8.30465 12.0113 8.16461C12.0732 8.0843 12.0299 7.8809 12.0299 7.87473C11.9106 7.59379 11.7433 7.56993 11.6813 7.43035C11.6255 7.24492 11.6507 7.03328 11.7667 6.9743C11.8697 6.88887 11.9916 6.89942 12.1041 6.99278C12.2326 7.09793 12.3466 7.30344 12.3796 7.45653C12.3576 7.51707 12.2115 7.41629 12.1609 7.44637C12.2506 7.53121 12.2924 7.62911 12.3248 7.74887C12.4076 8.06954 12.3824 8.19418 12.299 8.40153C12.0166 8.94411 11.6558 9.10602 11.3401 9.30704C11.3317 9.30977 11.3261 9.44473 11.4448 9.5177C11.4857 9.557 11.6504 9.57716 11.8441 9.52044C12.2182 9.33395 12.6067 8.9904 12.7995 8.60766C12.8555 8.31817 12.7779 8.01118 12.6955 7.74344C12.5714 7.4818 12.4253 7.10821 12.4253 7.10203C12.4204 6.93887 12.435 6.88227 12.5133 6.80086H12.5132ZM8.41836 5.29187C8.59837 5.37035 8.93683 5.33695 8.92251 5.07164C8.92251 5.0482 8.91597 4.96883 8.9134 4.9473C8.87665 4.8691 8.77643 4.88844 8.75369 4.96918C8.74655 4.99562 8.76642 5.03871 8.74023 5.05199C8.72518 5.06586 8.66765 5.05769 8.67005 4.98441C8.67005 4.96105 8.65124 4.93597 8.63987 4.92113C8.62851 4.91433 8.62128 4.91246 8.60068 4.91246C8.57555 4.91336 8.57598 4.91933 8.56222 4.93863C8.55636 4.95824 8.54833 4.97742 8.54833 4.99969C8.54516 5.02578 8.53439 5.03508 8.51341 5.03894C8.48995 5.03894 8.49525 5.04129 8.47623 5.03023C8.46494 5.01891 8.45084 5.01461 8.45084 4.99535C8.45084 4.97539 8.44588 4.94308 8.4393 4.92992C8.42934 4.91789 8.41331 4.91234 8.39528 4.90808C8.29698 4.9084 8.29014 5.0109 8.29583 5.0498C8.28843 5.05715 8.28429 5.24101 8.41836 5.29187V5.29187Z" fill="white"/>
<path fill-rule="evenodd" clip-rule="evenodd" d="M13.6953 7.33324C13.8753 7.41172 14.3038 7.36656 14.1994 7.11301C14.1994 7.08957 14.1929 7.01016 14.1903 6.98867C14.1536 6.91047 14.0533 6.92981 14.0306 7.01055C14.0235 7.03699 14.0433 7.08008 14.0171 7.09336C14.0021 7.10723 13.9446 7.09906 13.947 7.02578C13.947 7.00242 13.9282 6.97735 13.9168 6.9625C13.9054 6.9557 13.8982 6.95383 13.8776 6.95383C13.8525 6.95473 13.8529 6.9607 13.8391 6.98C13.8333 6.99961 13.8252 7.01879 13.8252 7.04106C13.8221 7.06715 13.8113 7.07645 13.7903 7.08031C13.7669 7.08031 13.7722 7.08266 13.7531 7.0716C13.7419 7.06028 13.7278 7.05598 13.7278 7.03672C13.7278 7.01676 13.7228 6.98446 13.7162 6.97129C13.7063 6.95926 13.6902 6.95371 13.6722 6.94945C13.5739 6.94977 13.5671 7.05227 13.5727 7.09117C13.5653 7.09852 13.5612 7.28238 13.6953 7.33324V7.33324ZM16.7725 6.48832C16.9525 6.5668 17.291 6.5334 17.2766 6.26809C17.2766 6.24465 17.2701 6.16528 17.2675 6.14375C17.2308 6.06555 17.1306 6.08488 17.1078 6.16563C17.1007 6.19207 17.1206 6.23516 17.0944 6.24844C17.0793 6.26231 17.0218 6.25414 17.0242 6.18086C17.0242 6.1575 17.0054 6.13242 16.994 6.11758C16.9826 6.11078 16.9754 6.10891 16.9548 6.10891C16.9297 6.10981 16.9301 6.11578 16.9163 6.13508C16.9105 6.15469 16.9024 6.17387 16.9024 6.19613C16.8993 6.22223 16.8885 6.23153 16.8675 6.23539C16.8441 6.23539 16.8494 6.23774 16.8304 6.22668C16.8191 6.21535 16.8049 6.21106 16.8049 6.1918C16.8049 6.17184 16.8 6.13953 16.7934 6.12637C16.7835 6.11434 16.7674 6.10879 16.7494 6.10453C16.6511 6.10485 16.6443 6.20735 16.65 6.24625C16.6426 6.2536 16.6384 6.43746 16.7725 6.48832V6.48832ZM18.3662 8.61059C18.0525 8.93375 18.1908 9.46821 18.2617 9.58336C18.3651 9.7725 18.4484 9.89379 18.6497 9.98735C18.833 10.1107 18.9759 10.0336 19.0546 9.94723C19.2391 9.7725 19.2413 9.32637 19.3279 9.23797C19.3886 9.07559 19.5416 9.10332 19.6158 9.17528C19.6877 9.26981 19.7725 9.33074 19.8782 9.38223C20.0502 9.52098 20.2557 9.54629 20.4582 9.41988C20.5965 9.34895 20.6864 9.25731 20.7674 9.07539C20.8574 8.85547 20.8072 7.83914 20.7892 7.2368C20.7823 7.18953 20.6104 6.40848 20.6104 6.39977C20.6104 6.39102 20.5877 6.00113 20.5688 5.90824C20.5655 5.87055 20.5552 5.85973 20.5984 5.86449C20.6443 5.89977 20.6506 5.90199 20.6792 5.9136C20.7255 5.92133 20.7669 5.84934 20.739 5.78313L20.3095 5.05918C20.275 5.02817 20.2306 4.9941 20.1759 5.06793C20.1237 5.10977 20.0681 5.18551 20.0698 5.28289C20.0825 5.45445 20.1155 5.62899 20.1281 5.80059L20.3 6.68153C20.3541 7.30949 20.3676 7.82344 20.4217 8.45141C20.4141 8.71731 20.3237 8.94914 20.2388 8.98258C20.2388 8.98258 20.1098 9.05094 20.0232 8.97543C19.9603 8.95235 19.7083 8.59164 19.7083 8.59164C19.5795 8.48371 19.4946 8.51457 19.4029 8.59164C19.1501 8.81473 19.0358 9.23203 18.864 9.51988C18.8197 9.58414 18.6946 9.6391 18.5559 9.5152C18.2036 9.07543 18.4101 8.44969 18.3662 8.61059V8.61059ZM16.8533 4.94809C17.0145 5.00981 17.1283 5.30836 17.0912 5.45414C17.0591 5.63449 16.9736 5.82926 16.9121 5.80391C16.8452 5.78125 16.9576 5.62461 16.8934 5.46031C16.8577 5.35336 16.6376 5.15793 16.6608 5.10031C16.6154 4.97961 16.7544 4.9268 16.8533 4.94809Z" fill="white"/>
<path fill-rule="evenodd" clip-rule="evenodd" d="M18.8856 8.78744C18.9195 8.42889 18.8623 8.21025 18.8521 7.99951C18.8419 7.78877 18.5913 6.1808 18.5405 6.02135C18.4792 5.71986 18.7841 5.98092 18.7508 5.80557C18.6453 5.58447 18.3827 5.2626 18.3003 5.07057C18.2507 4.9883 18.2715 4.9151 18.1605 5.04893C18.0575 5.35658 18.0218 5.60807 18.0611 5.79912C18.3255 7.06045 18.5968 8.10928 18.5537 9.31002C18.6791 9.3108 18.8237 9.04775 18.8856 8.78748V8.78744ZM21.641 5.45619C21.788 5.52299 21.8741 5.89717 21.8579 6.00408C21.8286 6.19935 21.7506 6.41021 21.6946 6.38275C21.6337 6.35822 21.7068 6.09318 21.6775 6.01076C21.645 5.89498 21.4444 5.68342 21.4655 5.62103C21.4241 5.49037 21.5508 5.43318 21.641 5.45619V5.45619ZM10.7139 8.10932C10.8545 8.15838 10.937 8.43334 10.9214 8.51193C10.8934 8.65537 10.8187 8.81033 10.7652 8.79018C10.7069 8.77213 10.7769 8.57736 10.7489 8.51682C10.737 8.36994 10.5418 8.29389 10.5459 8.23045C10.5095 8.11381 10.6276 8.09236 10.7139 8.10936V8.10932Z" fill="white"/>
<path fill-rule="evenodd" clip-rule="evenodd" d="M14.112 8.52216C14.2935 8.53271 14.3843 8.66286 14.2142 8.71747C14.0465 8.76993 13.8853 8.81095 13.8845 9.03247C13.9466 9.34114 13.7995 9.23521 13.7117 9.19329C13.6083 9.12544 13.3182 8.96204 13.2768 8.60931C13.2706 8.52513 13.3424 8.45427 13.458 8.45478C13.6322 8.49802 13.8891 8.50118 14.112 8.52216H14.112Z" fill="#1B9D00"/>
<path fill-rule="evenodd" clip-rule="evenodd" d="M6.955 4.85891C7.1625 4.91609 7.17476 5.19484 7.15946 5.27633C7.13181 5.42508 7.0583 5.5857 7.00552 5.56476C6.94808 5.54609 7.00325 5.34418 6.97569 5.28137C6.94491 5.19316 6.7696 5.03199 6.78947 4.98449C6.75045 4.88492 6.86995 4.84133 6.955 4.85891V4.85891ZM11.0529 6.17297C10.8936 6.25168 10.8319 6.48625 10.931 6.62289C11.0236 6.7432 11.1698 6.69859 11.1893 6.69859C11.3453 6.71644 11.4378 6.43133 11.4378 6.43133C11.4378 6.43133 11.4428 6.35117 11.2575 6.50265C11.1796 6.51601 11.1698 6.48926 11.1503 6.44914C11.1341 6.37492 11.1373 6.3007 11.1747 6.22644C11.2023 6.15519 11.1422 6.12398 11.0529 6.17297V6.17297ZM12.247 4.75109C12.167 4.80012 12.0077 4.9509 12.0029 5.12465C11.998 5.22266 11.9781 5.22234 12.0482 5.28473C12.099 5.3516 12.1501 5.34558 12.2525 5.29656C12.3113 5.25695 12.3312 5.23066 12.351 5.16426C12.3754 5.05293 12.2222 5.21707 12.2027 5.09316C12.1686 4.97809 12.267 4.93098 12.3596 4.81965C12.3627 4.74336 12.3609 4.68934 12.247 4.75109V4.75109ZM13.209 4.90734C13.1745 4.97695 13.1332 5.34066 13.1401 5.34066C13.1126 5.44902 13.2642 5.49539 13.3331 5.35609C13.4365 5.10074 13.4365 4.99242 13.4434 4.88406C13.4112 4.71906 13.2895 4.72422 13.209 4.90734ZM19.2745 7.72843C19.2952 7.70953 20.1292 7.16777 20.1292 7.16777C20.2142 7.14046 20.1958 7.44707 20.1568 7.44496C20.1729 7.50582 19.3343 8.0266 19.2745 8.00562C19.2332 8.03292 19.1918 7.79566 19.2745 7.72843H19.2745ZM20.0349 7.72375C20.1819 7.79054 20.2404 8.18363 20.2242 8.29054C20.2294 8.49843 20.0825 8.66515 20.0264 8.63773C19.9655 8.6132 20.0318 8.37964 20.0025 8.29722C19.97 8.18144 19.8452 7.96355 19.8663 7.90117C19.8248 7.7705 19.9447 7.70074 20.0349 7.72375V7.72375ZM15.0742 9.41671C15.1322 9.33921 15.3114 9.22769 15.3154 9.22769C15.3981 9.18988 15.4789 9.25734 15.474 9.25288C15.4877 9.32851 15.4216 9.39886 15.4424 9.49968C15.4604 9.54031 15.4736 9.58542 15.5551 9.56824C15.6875 9.473 15.8103 9.46687 15.9427 9.46081C16.0441 9.4664 16.0481 9.62343 15.984 9.6246C15.7395 9.67316 15.6299 9.733 15.4553 9.7939C15.3726 9.838 15.3016 9.78206 15.3016 9.77577C15.3016 9.76948 15.2532 9.73288 15.287 9.63273C15.293 9.55241 15.2576 9.50839 15.1844 9.51749C15.1293 9.54476 15.0807 9.56281 15.0532 9.50488C15.0423 9.4621 15.0388 9.44128 15.0742 9.41671V9.41671ZM20.9123 9.62843C20.948 9.66999 20.9711 9.70847 20.9094 9.77675C20.8509 9.82574 20.8097 9.85273 20.7513 9.90171C20.7236 9.94476 20.706 10.0101 20.7904 10.0309C20.9464 10.071 21.3071 9.85714 21.3071 9.85269C21.3656 9.81261 21.3461 9.73687 21.3412 9.73687C21.3071 9.70124 21.2302 9.72241 21.1786 9.71663C21.1539 9.71663 21.0732 9.70546 21.1116 9.64015C21.1437 9.59952 21.1552 9.57464 21.1769 9.52456C21.2013 9.47558 21.1804 9.44292 21.0926 9.41616C21.0033 9.40132 20.9676 9.40874 20.8684 9.41616C20.8149 9.42656 20.7966 9.44847 20.7868 9.50784C20.7907 9.59792 20.8506 9.59281 20.9123 9.62843V9.62843Z" fill="white"/>
<path fill-rule="evenodd" clip-rule="evenodd" d="M15.1062 7.4117C15.0834 7.44783 15.006 7.44607 14.9335 7.40779C14.8611 7.36951 14.8208 7.30908 14.8437 7.27291C14.8665 7.23674 14.9438 7.23853 15.0163 7.27689C15.0888 7.31525 15.1291 7.37556 15.1062 7.4117ZM11.2994 5.31819C11.256 5.32788 11.1994 5.29257 11.1728 5.23933C11.1463 5.18608 11.16 5.13507 11.2033 5.12538C11.2466 5.11569 11.3032 5.15097 11.3298 5.20421C11.3563 5.25745 11.3427 5.3085 11.2994 5.31819Z" fill="#259F00"/>
<path fill-rule="evenodd" clip-rule="evenodd" d="M18.8297 14.6472C19.2293 14.665 19.6048 14.6514 20.0044 14.6692C20.0768 14.7255 20.0251 14.8635 19.9769 14.8536C19.8469 14.8506 19.7721 14.8477 19.6421 14.8447C19.6377 14.7284 19.3128 14.7474 19.3221 14.8484C19.1467 14.8677 18.9885 14.8428 18.813 14.8369C18.7612 14.7779 18.7678 14.6716 18.8297 14.6472H18.8297Z" fill="#209000"/>
</g>
<defs>
<clipPath id="clip0">
<rect width="31" height="20" rx="3" fill="white"/>
</clipPath>
</defs>
</svg>
